<svg width="31" height="35" viewBox="0 0 31 35" fill="none" xmlns="http://www.w3.org/2000/svg">
<path fill-rule="evenodd" clip-rule="evenodd" d="M15.4873 12.7885C12.2643 12.7885 9.5119 13.2758 9.5119 15.2274C9.5119 17.179 12.2468 17.6838 15.4873 17.6838C18.7103 17.6838 21.4619 17.1957 21.4619 15.2449C21.4619 13.2941 18.7278 12.7885 15.4873 12.7885Z" stroke="#C3C3C3" stroke-width="1.5" stroke-linecap="round" stroke-linejoin="round"/>
<path fill-rule="evenodd" clip-rule="evenodd" d="M15.4873 10.0049C17.6024 10.0049 19.3167 8.28984 19.3167 6.17476C19.3167 4.05968 17.6024 2.3454 15.4873 2.3454C13.3722 2.3454 11.6571 4.05968 11.6571 6.17476C11.65 8.2827 13.3532 9.99778 15.4603 10.0049H15.4873Z" stroke="#C3C3C3" stroke-width="1.42857" stroke-linecap="round" stroke-linejoin="round"/>
<path d="M5.43 26.07C5.43 26.65 5.23 27.1333 4.83 27.52C4.43667 27.9 3.83333 28.09 3.02 28.09H1.68V31H0.77V24.03H3.02C3.80667 24.03 4.40333 24.22 4.81 24.6C5.22333 24.98 5.43 25.47 5.43 26.07ZM3.02 27.34C3.52667 27.34 3.9 27.23 4.14 27.01C4.38 26.79 4.5 26.4767 4.5 26.07C4.5 25.21 4.00667 24.78 3.02 24.78H1.68V27.34H3.02ZM7.47102 26.41C7.63102 26.0967 7.85768 25.8533 8.15102 25.68C8.45102 25.5067 8.81435 25.42 9.24102 25.42V26.36H9.00102C7.98102 26.36 7.47102 26.9133 7.47102 28.02V31H6.56102V25.52H7.47102V26.41ZM12.6815 31.09C12.1682 31.09 11.7015 30.9733 11.2815 30.74C10.8682 30.5067 10.5415 30.1767 10.3015 29.75C10.0682 29.3167 9.95148 28.8167 9.95148 28.25C9.95148 27.69 10.0715 27.1967 10.3115 26.77C10.5582 26.3367 10.8915 26.0067 11.3115 25.78C11.7315 25.5467 12.2015 25.43 12.7215 25.43C13.2415 25.43 13.7115 25.5467 14.1315 25.78C14.5515 26.0067 14.8815 26.3333 15.1215 26.76C15.3682 27.1867 15.4915 27.6833 15.4915 28.25C15.4915 28.8167 15.3648 29.3167 15.1115 29.75C14.8648 30.1767 14.5282 30.5067 14.1015 30.74C13.6748 30.9733 13.2015 31.09 12.6815 31.09ZM12.6815 30.29C13.0082 30.29 13.3148 30.2133 13.6015 30.06C13.8882 29.9067 14.1182 29.6767 14.2915 29.37C14.4715 29.0633 14.5615 28.69 14.5615 28.25C14.5615 27.81 14.4748 27.4367 14.3015 27.13C14.1282 26.8233 13.9015 26.5967 13.6215 26.45C13.3415 26.2967 13.0382 26.22 12.7115 26.22C12.3782 26.22 12.0715 26.2967 11.7915 26.45C11.5182 26.5967 11.2982 26.8233 11.1315 27.13C10.9648 27.4367 10.8815 27.81 10.8815 28.25C10.8815 28.6967 10.9615 29.0733 11.1215 29.38C11.2882 29.6867 11.5082 29.9167 11.7815 30.07C12.0548 30.2167 12.3548 30.29 12.6815 30.29ZM18.918 26.27H17.768V31H16.858V26.27H16.148V25.52H16.858V25.13C16.858 24.5167 17.0146 24.07 17.328 23.79C17.648 23.5033 18.158 23.36 18.858 23.36V24.12C18.458 24.12 18.1746 24.2 18.008 24.36C17.848 24.5133 17.768 24.77 17.768 25.13V25.52H18.918V26.27ZM20.449 24.63C20.2757 24.63 20.129 24.57 20.009 24.45C19.889 24.33 19.829 24.1833 19.829 24.01C19.829 23.8367 19.889 23.69 20.009 23.57C20.129 23.45 20.2757 23.39 20.449 23.39C20.6157 23.39 20.7557 23.45 20.869 23.57C20.989 23.69 21.049 23.8367 21.049 24.01C21.049 24.1833 20.989 24.33 20.869 24.45C20.7557 24.57 20.6157 24.63 20.449 24.63ZM20.889 25.52V31H19.979V25.52H20.889ZM23.3499 23.6V31H22.4399V23.6H23.3499ZM29.9009 28.05C29.9009 28.2233 29.8909 28.4067 29.8709 28.6H25.4909C25.5242 29.14 25.7075 29.5633 26.0409 29.87C26.3809 30.17 26.7909 30.32 27.2709 30.32C27.6642 30.32 27.9909 30.23 28.2509 30.05C28.5175 29.8633 28.7042 29.6167 28.8109 29.31H29.7909C29.6442 29.8367 29.3509 30.2667 28.9109 30.6C28.4709 30.9267 27.9242 31.09 27.2709 31.09C26.7509 31.09 26.2842 30.9733 25.8709 30.74C25.4642 30.5067 25.1442 30.1767 24.9109 29.75C24.6775 29.3167 24.5609 28.8167 24.5609 28.25C24.5609 27.6833 24.6742 27.1867 24.9009 26.76C25.1275 26.3333 25.4442 26.0067 25.8509 25.78C26.2642 25.5467 26.7375 25.43 27.2709 25.43C27.7909 25.43 28.2509 25.5433 28.6509 25.77C29.0509 25.9967 29.3575 26.31 29.5709 26.71C29.7909 27.1033 29.9009 27.55 29.9009 28.05ZM28.9609 27.86C28.9609 27.5133 28.8842 27.2167 28.7309 26.97C28.5775 26.7167 28.3675 26.5267 28.1009 26.4C27.8409 26.2667 27.5509 26.2 27.2309 26.2C26.7709 26.2 26.3775 26.3467 26.0509 26.64C25.7309 26.9333 25.5475 27.34 25.5009 27.86H28.9609Z" fill="#C3C3C3"/>
</svg>
