<svg width="36" height="36" viewBox="0 0 36 36" fill="none" xmlns="http://www.w3.org/2000/svg">
<path d="M22.6651 12.9054H21.7383L21.4098 12.5886C22.8176 10.9462 23.545 8.7055 23.1461 6.32401C22.5947 3.06265 19.873 0.458262 16.5882 0.0593914C11.6258 -0.550646 7.44935 3.62577 8.05939 8.58819C8.45826 11.873 11.0627 14.5947 14.324 15.1461C16.7055 15.545 18.9462 14.8176 20.5886 13.4098L20.9054 13.7383V14.6651L25.8913 19.651C26.3723 20.132 27.1583 20.132 27.6393 19.651C28.1202 19.17 28.1202 18.384 27.6393 17.903L22.6651 12.9054ZM15.6262 12.9054C12.7051 12.9054 10.347 10.5473 10.347 7.62621C10.347 4.70506 12.7051 2.34703 15.6262 2.34703C18.5473 2.34703 20.9054 4.70506 20.9054 7.62621C20.9054 10.5473 18.5473 12.9054 15.6262 12.9054Z" fill="#C3C3C3"/>
<path d="M4.26 27.4217C4.51333 27.4617 4.74333 27.5651 4.95 27.7317C5.16333 27.8984 5.33 28.1051 5.45 28.3517C5.57667 28.5984 5.64 28.8617 5.64 29.1417C5.64 29.4951 5.55 29.8151 5.37 30.1017C5.19 30.3817 4.92667 30.6051 4.58 30.7717C4.24 30.9317 3.83667 31.0117 3.37 31.0117H0.77V24.0417H3.27C3.74333 24.0417 4.14667 24.1217 4.48 24.2817C4.81333 24.4351 5.06333 24.6451 5.23 24.9117C5.39667 25.1784 5.48 25.4784 5.48 25.8117C5.48 26.2251 5.36667 26.5684 5.14 26.8417C4.92 27.1084 4.62667 27.3017 4.26 27.4217ZM1.68 27.0517H3.21C3.63667 27.0517 3.96667 26.9517 4.2 26.7517C4.43333 26.5517 4.55 26.2751 4.55 25.9217C4.55 25.5684 4.43333 25.2917 4.2 25.0917C3.96667 24.8917 3.63 24.7917 3.19 24.7917H1.68V27.0517ZM3.29 30.2617C3.74333 30.2617 4.09667 30.1551 4.35 29.9417C4.60333 29.7284 4.73 29.4317 4.73 29.0517C4.73 28.6651 4.59667 28.3617 4.33 28.1417C4.06333 27.9151 3.70667 27.8017 3.26 27.8017H1.68V30.2617H3.29ZM7.81281 26.4217C7.97281 26.1084 8.19948 25.8651 8.49281 25.6917C8.79281 25.5184 9.15615 25.4317 9.58281 25.4317V26.3717H9.34281C8.32281 26.3717 7.81281 26.9251 7.81281 28.0317V31.0117H6.90281V25.5317H7.81281V26.4217ZM13.0233 31.1017C12.5099 31.1017 12.0433 30.9851 11.6233 30.7517C11.2099 30.5184 10.8833 30.1884 10.6433 29.7617C10.4099 29.3284 10.2933 28.8284 10.2933 28.2617C10.2933 27.7017 10.4133 27.2084 10.6533 26.7817C10.8999 26.3484 11.2333 26.0184 11.6533 25.7917C12.0733 25.5584 12.5433 25.4417 13.0633 25.4417C13.5833 25.4417 14.0533 25.5584 14.4733 25.7917C14.8933 26.0184 15.2233 26.3451 15.4633 26.7717C15.7099 27.1984 15.8333 27.6951 15.8333 28.2617C15.8333 28.8284 15.7066 29.3284 15.4533 29.7617C15.2066 30.1884 14.8699 30.5184 14.4433 30.7517C14.0166 30.9851 13.5433 31.1017 13.0233 31.1017ZM13.0233 30.3017C13.3499 30.3017 13.6566 30.2251 13.9433 30.0717C14.2299 29.9184 14.4599 29.6884 14.6333 29.3817C14.8133 29.0751 14.9033 28.7017 14.9033 28.2617C14.9033 27.8217 14.8166 27.4484 14.6433 27.1417C14.4699 26.8351 14.2433 26.6084 13.9633 26.4617C13.6833 26.3084 13.3799 26.2317 13.0533 26.2317C12.7199 26.2317 12.4133 26.3084 12.1333 26.4617C11.8599 26.6084 11.6399 26.8351 11.4733 27.1417C11.3066 27.4484 11.2233 27.8217 11.2233 28.2617C11.2233 28.7084 11.3033 29.0851 11.4633 29.3917C11.6299 29.6984 11.8499 29.9284 12.1233 30.0817C12.3966 30.2284 12.6966 30.3017 13.0233 30.3017ZM24.3298 25.5317L22.6198 31.0117H21.6798L20.3598 26.6617L19.0398 31.0117H18.0998L16.3798 25.5317H17.3098L18.5698 30.1317L19.9298 25.5317H20.8598L22.1898 30.1417L23.4298 25.5317H24.3298ZM27.1729 31.1017C26.7529 31.1017 26.3762 31.0317 26.0429 30.8917C25.7096 30.7451 25.4462 30.5451 25.2529 30.2917C25.0596 30.0317 24.9529 29.7351 24.9329 29.4017H25.8729C25.8996 29.6751 26.0262 29.8984 26.2529 30.0717C26.4862 30.2451 26.7896 30.3317 27.1629 30.3317C27.5096 30.3317 27.7829 30.2551 27.9829 30.1017C28.1829 29.9484 28.2829 29.7551 28.2829 29.5217C28.2829 29.2817 28.1762 29.1051 27.9629 28.9917C27.7496 28.8717 27.4196 28.7551 26.9729 28.6417C26.5662 28.5351 26.2329 28.4284 25.9729 28.3217C25.7196 28.2084 25.4996 28.0451 25.3129 27.8317C25.1329 27.6117 25.0429 27.3251 25.0429 26.9717C25.0429 26.6917 25.1262 26.4351 25.2929 26.2017C25.4596 25.9684 25.6962 25.7851 26.0029 25.6517C26.3096 25.5117 26.6596 25.4417 27.0529 25.4417C27.6596 25.4417 28.1496 25.5951 28.5229 25.9017C28.8962 26.2084 29.0962 26.6284 29.1229 27.1617H28.2129C28.1929 26.8751 28.0762 26.6451 27.8629 26.4717C27.6562 26.2984 27.3762 26.2117 27.0229 26.2117C26.6962 26.2117 26.4362 26.2817 26.2429 26.4217C26.0496 26.5617 25.9529 26.7451 25.9529 26.9717C25.9529 27.1517 26.0096 27.3017 26.1229 27.4217C26.2429 27.5351 26.3896 27.6284 26.5629 27.7017C26.7429 27.7684 26.9896 27.8451 27.3029 27.9317C27.6962 28.0384 28.0162 28.1451 28.2629 28.2517C28.5096 28.3517 28.7196 28.5051 28.8929 28.7117C29.0729 28.9184 29.1662 29.1884 29.1729 29.5217C29.1729 29.8217 29.0896 30.0917 28.9229 30.3317C28.7562 30.5717 28.5196 30.7617 28.2129 30.9017C27.9129 31.0351 27.5662 31.1017 27.1729 31.1017ZM35.4575 28.0617C35.4575 28.2351 35.4475 28.4184 35.4275 28.6117H31.0475C31.0808 29.1517 31.2642 29.5751 31.5975 29.8817C31.9375 30.1817 32.3475 30.3317 32.8275 30.3317C33.2208 30.3317 33.5475 30.2417 33.8075 30.0617C34.0742 29.8751 34.2608 29.6284 34.3675 29.3217H35.3475C35.2008 29.8484 34.9075 30.2784 34.4675 30.6117C34.0275 30.9384 33.4808 31.1017 32.8275 31.1017C32.3075 31.1017 31.8408 30.9851 31.4275 30.7517C31.0208 30.5184 30.7008 30.1884 30.4675 29.7617C30.2342 29.3284 30.1175 28.8284 30.1175 28.2617C30.1175 27.6951 30.2308 27.1984 30.4575 26.7717C30.6842 26.3451 31.0008 26.0184 31.4075 25.7917C31.8208 25.5584 32.2942 25.4417 32.8275 25.4417C33.3475 25.4417 33.8075 25.5551 34.2075 25.7817C34.6075 26.0084 34.9142 26.3217 35.1275 26.7217C35.3475 27.1151 35.4575 27.5617 35.4575 28.0617ZM34.5175 27.8717C34.5175 27.5251 34.4408 27.2284 34.2875 26.9817C34.1342 26.7284 33.9242 26.5384 33.6575 26.4117C33.3975 26.2784 33.1075 26.2117 32.7875 26.2117C32.3275 26.2117 31.9342 26.3584 31.6075 26.6517C31.2875 26.9451 31.1042 27.3517 31.0575 27.8717H34.5175Z" fill="#C3C3C3"/>
</svg>
