<svg width="31" height="35" viewBox="0 0 31 35" fill="none" xmlns="http://www.w3.org/2000/svg">
<path d="M13.1124 17.3111V14.763C13.1124 14.1126 13.6435 13.5853 14.2987 13.5853H16.6939C17.0085 13.5853 17.3103 13.7094 17.5328 13.9302C17.7553 14.1511 17.8803 14.4507 17.8803 14.763V17.3111C17.8783 17.5816 17.9851 17.8416 18.177 18.0335C18.3689 18.2254 18.6301 18.3334 18.9025 18.3333H20.5366C21.2997 18.3353 22.0323 18.0357 22.5727 17.5007C23.113 16.9657 23.4167 16.2392 23.4167 15.4815V8.2224C23.4167 7.6104 23.1434 7.02989 22.6706 6.63724L17.1117 2.22991C16.1448 1.45716 14.7593 1.48211 13.8212 2.28917L8.38922 6.63724C7.89399 7.01831 7.598 7.60055 7.58337 8.2224V15.4741C7.58337 17.0532 8.87286 18.3333 10.4635 18.3333H12.0603C12.6261 18.3334 13.0859 17.8802 13.09 17.3185L13.1124 17.3111Z" fill="#ffffff"/>
<path d="M6.48 24.02V31H5.08V28.03H2.09V31H0.69V24.02H2.09V26.89H5.08V24.02H6.48ZM10.318 31.09C9.78464 31.09 9.30464 30.9733 8.87797 30.74C8.4513 30.5 8.11464 30.1633 7.86797 29.73C7.62797 29.2967 7.50797 28.7967 7.50797 28.23C7.50797 27.6633 7.6313 27.1633 7.87797 26.73C8.1313 26.2967 8.47464 25.9633 8.90797 25.73C9.3413 25.49 9.82464 25.37 10.358 25.37C10.8913 25.37 11.3746 25.49 11.808 25.73C12.2413 25.9633 12.5813 26.2967 12.828 26.73C13.0813 27.1633 13.208 27.6633 13.208 28.23C13.208 28.7967 13.078 29.2967 12.818 29.73C12.5646 30.1633 12.218 30.5 11.778 30.74C11.3446 30.9733 10.858 31.09 10.318 31.09ZM10.318 29.87C10.5713 29.87 10.808 29.81 11.028 29.69C11.2546 29.5633 11.4346 29.3767 11.568 29.13C11.7013 28.8833 11.768 28.5833 11.768 28.23C11.768 27.7033 11.628 27.3 11.348 27.02C11.0746 26.7333 10.738 26.59 10.338 26.59C9.93797 26.59 9.6013 26.7333 9.32797 27.02C9.0613 27.3 8.92797 27.7033 8.92797 28.23C8.92797 28.7567 9.05797 29.1633 9.31797 29.45C9.58464 29.73 9.91797 29.87 10.318 29.87ZM21.1149 25.38C21.7949 25.38 22.3416 25.59 22.7549 26.01C23.1749 26.4233 23.3849 27.0033 23.3849 27.75V31H21.9849V27.94C21.9849 27.5067 21.8749 27.1767 21.6549 26.95C21.4349 26.7167 21.1349 26.6 20.7549 26.6C20.3749 26.6 20.0716 26.7167 19.8449 26.95C19.6249 27.1767 19.5149 27.5067 19.5149 27.94V31H18.1149V27.94C18.1149 27.5067 18.0049 27.1767 17.7849 26.95C17.5649 26.7167 17.2649 26.6 16.8849 26.6C16.4983 26.6 16.1916 26.7167 15.9649 26.95C15.7449 27.1767 15.6349 27.5067 15.6349 27.94V31H14.2349V25.46H15.6349V26.13C15.8149 25.8967 16.0449 25.7133 16.3249 25.58C16.6116 25.4467 16.9249 25.38 17.2649 25.38C17.6983 25.38 18.0849 25.4733 18.4249 25.66C18.7649 25.84 19.0283 26.1 19.2149 26.44C19.3949 26.12 19.6549 25.8633 19.9949 25.67C20.3416 25.4767 20.7149 25.38 21.1149 25.38ZM29.8634 28.11C29.8634 28.31 29.8501 28.49 29.8234 28.65H25.7734C25.8068 29.05 25.9468 29.3633 26.1934 29.59C26.4401 29.8167 26.7434 29.93 27.1034 29.93C27.6234 29.93 27.9934 29.7067 28.2134 29.26H29.7234C29.5634 29.7933 29.2568 30.2333 28.8034 30.58C28.3501 30.92 27.7934 31.09 27.1334 31.09C26.6001 31.09 26.1201 30.9733 25.6934 30.74C25.2734 30.5 24.9434 30.1633 24.7034 29.73C24.4701 29.2967 24.3534 28.7967 24.3534 28.23C24.3534 27.6567 24.4701 27.1533 24.7034 26.72C24.9368 26.2867 25.2634 25.9533 25.6834 25.72C26.1034 25.4867 26.5868 25.37 27.1334 25.37C27.6601 25.37 28.1301 25.4833 28.5434 25.71C28.9634 25.9367 29.2868 26.26 29.5134 26.68C29.7468 27.0933 29.8634 27.57 29.8634 28.11ZM28.4134 27.71C28.4068 27.35 28.2768 27.0633 28.0234 26.85C27.7701 26.63 27.4601 26.52 27.0934 26.52C26.7468 26.52 26.4534 26.6267 26.2134 26.84C25.9801 27.0467 25.8368 27.3367 25.7834 27.71H28.4134Z" fill="#ffffff"/>
</svg>
