<svg width="35" height="35" viewBox="0 0 35 35" fill="none" xmlns="http://www.w3.org/2000/svg">
<path fill-rule="evenodd" clip-rule="evenodd" d="M12.4167 4.33331C11.3121 4.33331 10.4167 5.22874 10.4167 6.33331V6.91201C10.4167 7.14325 10.5638 7.34485 10.7621 7.46374C11.5372 7.92835 12.0695 8.88957 12.0695 9.99998C12.0695 11.1104 11.5372 12.0716 10.7621 12.5362C10.5638 12.6551 10.4167 12.8567 10.4167 13.088V13.6666C10.4167 14.7712 11.3121 15.6666 12.4167 15.6666H22.5834C23.6879 15.6666 24.5834 14.7712 24.5834 13.6666V13.0879C24.5834 12.8566 24.4363 12.6551 24.238 12.5362C23.4629 12.0715 22.9306 11.1104 22.9306 9.99998C22.9306 8.88961 23.4629 7.92842 24.238 7.46379C24.4363 7.34489 24.5834 7.14331 24.5834 6.91207V6.33331C24.5834 5.22874 23.6879 4.33331 22.5834 4.33331H12.4167ZM18.875 5.04165V7.52081C18.875 7.93503 19.2108 8.27081 19.625 8.27081C20.0392 8.27081 20.375 7.93503 20.375 7.52081V5.04165H18.875ZM20.375 12.4791C20.375 12.0649 20.0392 11.7291 19.625 11.7291C19.2108 11.7291 18.875 12.0649 18.875 12.4791V14.9583H20.375V12.4791Z" fill="#C3C3C3"/>
<path d="M5.06 24.03V24.77H3.16V31H2.25V24.77H0.34V24.03H5.06ZM6.65016 24.63C6.47682 24.63 6.33016 24.57 6.21016 24.45C6.09016 24.33 6.03016 24.1833 6.03016 24.01C6.03016 23.8367 6.09016 23.69 6.21016 23.57C6.33016 23.45 6.47682 23.39 6.65016 23.39C6.81682 23.39 6.95682 23.45 7.07016 23.57C7.19016 23.69 7.25016 23.8367 7.25016 24.01C7.25016 24.1833 7.19016 24.33 7.07016 24.45C6.95682 24.57 6.81682 24.63 6.65016 24.63ZM7.09016 25.52V31H6.18016V25.52H7.09016ZM8.30109 28.25C8.30109 27.6833 8.41443 27.19 8.64109 26.77C8.86776 26.3433 9.18109 26.0133 9.58109 25.78C9.98776 25.5467 10.4511 25.43 10.9711 25.43C11.6444 25.43 12.1978 25.5933 12.6311 25.92C13.0711 26.2467 13.3611 26.7 13.5011 27.28H12.5211C12.4278 26.9467 12.2444 26.6833 11.9711 26.49C11.7044 26.2967 11.3711 26.2 10.9711 26.2C10.4511 26.2 10.0311 26.38 9.71109 26.74C9.39109 27.0933 9.23109 27.5967 9.23109 28.25C9.23109 28.91 9.39109 29.42 9.71109 29.78C10.0311 30.14 10.4511 30.32 10.9711 30.32C11.3711 30.32 11.7044 30.2267 11.9711 30.04C12.2378 29.8533 12.4211 29.5867 12.5211 29.24H13.5011C13.3544 29.8 13.0611 30.25 12.6211 30.59C12.1811 30.9233 11.6311 31.09 10.9711 31.09C10.4511 31.09 9.98776 30.9733 9.58109 30.74C9.18109 30.5067 8.86776 30.1767 8.64109 29.75C8.41443 29.3233 8.30109 28.8233 8.30109 28.25ZM17.7753 31L15.6253 28.58V31H14.7153V23.6H15.6253V27.95L17.7353 25.52H19.0053L16.4253 28.25L19.0153 31H17.7753ZM24.8618 28.05C24.8618 28.2233 24.8518 28.4067 24.8318 28.6H20.4518C20.4851 29.14 20.6685 29.5633 21.0018 29.87C21.3418 30.17 21.7518 30.32 22.2318 30.32C22.6251 30.32 22.9518 30.23 23.2118 30.05C23.4785 29.8633 23.6651 29.6167 23.7718 29.31H24.7518C24.6051 29.8367 24.3118 30.2667 23.8718 30.6C23.4318 30.9267 22.8851 31.09 22.2318 31.09C21.7118 31.09 21.2451 30.9733 20.8318 30.74C20.4251 30.5067 20.1051 30.1767 19.8718 29.75C19.6385 29.3167 19.5218 28.8167 19.5218 28.25C19.5218 27.6833 19.6351 27.1867 19.8618 26.76C20.0885 26.3333 20.4051 26.0067 20.8118 25.78C21.2251 25.5467 21.6985 25.43 22.2318 25.43C22.7518 25.43 23.2118 25.5433 23.6118 25.77C24.0118 25.9967 24.3185 26.31 24.5318 26.71C24.7518 27.1033 24.8618 27.55 24.8618 28.05ZM23.9218 27.86C23.9218 27.5133 23.8451 27.2167 23.6918 26.97C23.5385 26.7167 23.3285 26.5267 23.0618 26.4C22.8018 26.2667 22.5118 26.2 22.1918 26.2C21.7318 26.2 21.3385 26.3467 21.0118 26.64C20.6918 26.9333 20.5085 27.34 20.4618 27.86H23.9218ZM27.173 26.27V29.5C27.173 29.7667 27.2296 29.9567 27.343 30.07C27.4563 30.1767 27.653 30.23 27.933 30.23H28.603V31H27.783C27.2763 31 26.8963 30.8833 26.643 30.65C26.3896 30.4167 26.263 30.0333 26.263 29.5V26.27H25.553V25.52H26.263V24.14H27.173V25.52H28.603V26.27H27.173ZM31.6455 31.09C31.2255 31.09 30.8489 31.02 30.5155 30.88C30.1822 30.7333 29.9189 30.5333 29.7255 30.28C29.5322 30.02 29.4255 29.7233 29.4055 29.39H30.3455C30.3722 29.6633 30.4989 29.8867 30.7255 30.06C30.9589 30.2333 31.2622 30.32 31.6355 30.32C31.9822 30.32 32.2555 30.2433 32.4555 30.09C32.6555 29.9367 32.7555 29.7433 32.7555 29.51C32.7555 29.27 32.6489 29.0933 32.4355 28.98C32.2222 28.86 31.8922 28.7433 31.4455 28.63C31.0389 28.5233 30.7055 28.4167 30.4455 28.31C30.1922 28.1967 29.9722 28.0333 29.7855 27.82C29.6055 27.6 29.5155 27.3133 29.5155 26.96C29.5155 26.68 29.5989 26.4233 29.7655 26.19C29.9322 25.9567 30.1689 25.7733 30.4755 25.64C30.7822 25.5 31.1322 25.43 31.5255 25.43C32.1322 25.43 32.6222 25.5833 32.9955 25.89C33.3689 26.1967 33.5689 26.6167 33.5955 27.15H32.6855C32.6655 26.8633 32.5489 26.6333 32.3355 26.46C32.1289 26.2867 31.8489 26.2 31.4955 26.2C31.1689 26.2 30.9089 26.27 30.7155 26.41C30.5222 26.55 30.4255 26.7333 30.4255 26.96C30.4255 27.14 30.4822 27.29 30.5955 27.41C30.7155 27.5233 30.8622 27.6167 31.0355 27.69C31.2155 27.7567 31.4622 27.8333 31.7755 27.92C32.1689 28.0267 32.4889 28.1333 32.7355 28.24C32.9822 28.34 33.1922 28.4933 33.3655 28.7C33.5455 28.9067 33.6389 29.1767 33.6455 29.51C33.6455 29.81 33.5622 30.08 33.3955 30.32C33.2289 30.56 32.9922 30.75 32.6855 30.89C32.3855 31.0233 32.0389 31.09 31.6455 31.09Z" fill="#C3C3C3"/>
</svg>
